# xmcd
#
# Track frame offsets: 
#        150
#        21470
#        41100
#        62131
#        86737
#        109579
#        138137
#        165356
#        181438
#        196324
#        226216
#        241679
#        264869
#        288059
#        306630
#        327739
#        343624
#
# Disc length: 4770 seconds
#
# Revision: 3
# Processed by: cddbd v1.5.2PL0 Copyright (c) Steve Scherf et al.
# Submitted via: ExactAudioCopy v1.3
#
DISCID=ee12a011
DTITLE=Various Artist - Akella Presents - vol. 05 - Women's Blues  CD
DTITLE=2
DYEAR=2010
DGENRE=Blues
TTITLE0=FIONA BOYES - Stranger In Your Eyes
TTITLE1=DEBORAH COLEMAN - My Heart Bleeds Blue
TTITLE2=KOKO TAYLOR - Keep Your Booty Our Of My Bed
TTITLE3=CAFE R&B - Phonecall from Leavenworth
TTITLE4=DIUNNA GREENLEAF - Back Door Man
TTITLE5=DANA GILLESPIE - Empty Bed Blues
TTITLE6=RITA CHIARELLI - Strange Behaviour
TTITLE7=HARRIET LEWIS - Wade In The Water
TTITLE8=BETH HART and The OCEAN OF SOUL - Just Call Me Up
TTITLE9=MAVIS STAPLES - Gotta Serve Somebody
TTITLE10=MARCIA BELL - Why Women Cry
TTITLE11=DAWN TYLER BLUES PROJECT - Movin' On
TTITLE12=KELLY RICHEY - Eyes Of a Woman
TTITLE13=DEBBIE DAVIES - Nature's Disappearing
TTITLE14=GALEA - My real daddy
TTITLE15=ETTA JAMES - Lie No Better
TTITLE16=FIONA BOYES - Woman Ain't a Mule
EXTD=
EXTT0=
EXTT1=
EXTT2=
EXTT3=
EXTT4=
EXTT5=
EXTT6=
EXTT7=
EXTT8=
EXTT9=
EXTT10=
EXTT11=
EXTT12=
EXTT13=
EXTT14=
EXTT15=
EXTT16=
PLAYORDER=
